<svg width="21" height="29" viewBox="0 0 21 29" fill="none" xmlns="http://www.w3.org/2000/svg">
<path fill-rule="evenodd" clip-rule="evenodd" d="M13.6502 5.47461C13.5667 5.65369 13.6441 5.86656 13.8232 5.95007C14.0023 6.03357 14.2152 5.95609 14.2987 5.77702L16.2873 1.51237L17.0921 1.88765L15.0871 6.18741C15.0036 6.36648 15.081 6.57935 15.2601 6.66286C15.4392 6.74636 15.6521 6.66889 15.7356 6.48981L17.7406 2.19005L18.5454 2.56533L16.524 6.9002C16.4405 7.07928 16.518 7.29214 16.697 7.37565C16.8761 7.45916 17.089 7.38168 17.1725 7.2026L19.1939 2.86773L20.3102 3.3883C20.4832 4.50353 20.3125 5.76695 19.7503 6.97255C18.8256 8.95556 17.1002 10.2278 15.4135 10.3631L12.7111 16.1585L17.227 25.8429L17.227 25.843L17.2271 25.8431C17.3676 26.1443 17.4378 26.295 17.4713 26.4319C17.6089 26.9941 17.3942 27.5838 16.9274 27.9261C16.8138 28.0094 16.6631 28.0797 16.3618 28.2202C16.0604 28.3607 15.9098 28.431 15.7729 28.4645C15.2106 28.6021 14.6209 28.3874 14.2786 27.9206C14.1953 27.8069 14.125 27.6563 13.9845 27.355L10.7373 20.3913L7.63109 27.0526L7.63107 27.0526C7.49057 27.3539 7.42032 27.5046 7.33698 27.6182C6.99471 28.085 6.40497 28.2997 5.84273 28.1621C5.70586 28.1286 5.55524 28.0584 5.25406 27.9179L5.25397 27.9179L5.25386 27.9178L5.25383 27.9178L5.2538 27.9178L5.25379 27.9178L5.25371 27.9178C4.95246 27.7773 4.80182 27.707 4.68817 27.6237C4.22138 27.2814 4.00673 26.6917 4.14431 26.1295C4.17781 25.9925 4.24807 25.8419 4.38858 25.5405L8.76351 16.1585L6.05718 10.3547C4.33493 10.2686 2.55271 8.98418 1.60734 6.95683C0.354747 4.27065 1.04562 1.29741 3.15044 0.315913C5.25526 -0.66558 7.97697 0.716345 9.22956 3.40253C10.0983 5.26561 10.0322 7.26678 9.20783 8.64572L10.7373 11.9257L12.2123 8.76253C11.3293 7.3815 11.2378 5.32737 12.128 3.41825C12.6902 2.21265 13.5483 1.26977 14.5138 0.685372L15.6388 1.20997L13.6502 5.47461Z" fill="white"/>
</svg>
