<?xml version="1.0" encoding="UTF-8" standalone="no"?>
<!-- Created with Inkscape (http://www.inkscape.org/) -->

<svg
   width="65.940811mm"
   height="156.5145mm"
   viewBox="0 0 65.940811 156.51449"
   version="1.1"
   id="svg5"
   inkscapeVersion="1.1.2 (b8e25be833, 2022-02-05)"
   sodipodiDocname="glass.svg"
   xmlnsInkscape="http://www.inkscape.org/namespaces/inkscape"
   xmlnsSodipodi="http://sodipodi.sourceforge.net/DTD/sodipodi-0.dtd"
   xmlns="http://www.w3.org/2000/svg"
   xmlnsSvg="http://www.w3.org/2000/svg">
  <sodipodiNamedview
     id="namedview7"
     pagecolor="#ffffff"
     bordercolor="#666666"
     borderopacity="1.0"
     inkscapePageshadow="2"
     inkscapePageopacity="0.0"
     inkscapePagecheckerboard="0"
     inkscapeDocument-units="mm"
     showgrid="false"
     inkscapeSnap-global="false"
     fit-margin-top="0"
     fit-margin-left="0"
     fit-margin-right="0"
     fit-margin-bottom="0"
     inkscapeZoom="0.5"
     inkscapeCx="579"
     inkscapeCy="613"
     inkscapeWindow-width="1920"
     inkscapeWindow-height="1051"
     inkscapeWindow-x="-9"
     inkscapeWindow-y="-9"
     inkscapeWindow-maximized="1"
     inkscapeCurrent-layer="layer1">
    <inkscapeGrid
       type="xygrid"
       id="grid232"
       originx="-103.99066"
       originy="-27.961565" />
  </sodipodiNamedview>
  <defs
     id="defs2" />
  <g
     inkscapeLabel="Layer 1"
     inkscapeGroupmode="layer"
     id="layer1"
     transform="translate(-103.99066,-27.961566)">
    <path
       style="fill:#000000;stroke-width:0.264583"
       d="m 127.89863,184.3969 c -7.38914,-0.4671 -13.38769,-1.4428 -15.87712,-2.5825 -1.73216,-0.79301 -2.09912,-1.66309 -1.88798,-4.47659 0.13123,-1.74875 0.21533,-1.96864 1.01658,-2.65798 0.48044,-0.41332 3.99128,-2.27907 7.80188,-4.14611 7.72655,-3.78569 8.76737,-4.53066 10.09357,-7.22456 1.77764,-3.6109 2.23775,-8.84626 1.09717,-12.48407 -1.20625,-3.84726 -6.36394,-13.04923 -15.86794,-28.31042 -1.35936,-2.18281 -3.22504,-5.53045 -4.14597,-7.43919 -4.27178,-8.85385 -6.50499,-19.46858 -6.08883,-28.941011 0.21503,-4.894215 2.17574,-17.927137 4.83628,-32.146875 l 1.23761,-6.614584 0.11854,-7.276041 0.11854,-7.276042 0.669,-0.708404 c 2.58139,-2.73342 15.01507,-4.472895 29.31408,-4.101049 11.96697,0.311201 19.96667,1.70375 22.48387,3.913882 l 0.87695,0.769974 0.12523,7.33884 c 0.1239,7.261489 0.13687,7.400192 1.23033,13.159674 1.10325,5.811062 2.78789,15.866687 4.16665,24.870834 0.63246,4.130307 0.72712,5.517618 0.71315,10.451041 -0.0223,7.866952 -0.74034,12.343371 -3.1246,19.478601 -1.43435,4.29252 -3.62025,8.94265 -6.14159,13.06514 -1.02351,1.67349 -3.65642,5.97418 -5.85091,9.55708 -9.78956,15.9832 -11.4924,19.6601 -11.50329,24.83876 -0.007,3.11958 0.45357,5.27073 1.67904,7.84969 1.15419,2.42895 2.70604,3.66608 7.59087,6.05142 2.28716,1.11685 5.26959,2.57593 6.62762,3.24239 1.35803,0.66646 2.96537,1.65224 3.57187,2.19062 l 1.10273,0.97888 -0.004,2.30569 c -0.004,2.07671 -0.064,2.3541 -0.60616,2.79313 -1.50615,1.21961 -6.15303,2.32772 -12.7511,3.04067 -3.6629,0.39579 -18.89003,0.72502 -22.62187,0.48911 z m 19.18229,-1.16023 c 1.81901,-0.13885 4.39334,-0.38705 5.72074,-0.55156 l 2.41345,-0.29911 0.14212,-1.75754 c 0.0782,-0.96665 0.1162,-1.78439 0.0845,-1.81721 -0.0317,-0.0328 -0.65682,0.0113 -1.38919,0.098 l -1.33158,0.15771 0.11137,1.22487 c 0.0766,0.84211 -0.0166,1.39025 -0.29807,1.75405 -0.38223,0.49399 -0.41001,0.41697 -0.41786,-1.15865 l -0.008,-1.68782 -1.52135,0.16554 c -6.74697,0.73416 -20.03301,1.04526 -25.93998,0.60741 l -2.98738,-0.22144 0.16406,0.65364 c 0.0902,0.3595 0.0474,1.07602 -0.0951,1.59226 l -0.25917,0.93863 1.62728,0.15308 c 3.11233,0.29278 4.05644,0.32034 12.34291,0.36033 4.58391,0.0221 9.82266,-0.0734 11.64167,-0.21223 z m -26.00541,-3.58938 c -0.0308,-0.0227 -0.57588,-0.12099 -1.21123,-0.21842 -1.10525,-0.16949 -1.14868,-0.15107 -1.00484,0.4262 0.0827,0.33184 0.22974,1.10283 0.32678,1.71329 0.15059,0.94733 0.27842,1.12177 0.87255,1.19063 0.66541,0.0771 0.70442,0.0112 0.88445,-1.49487 0.10358,-0.86656 0.16311,-1.59413 0.13229,-1.61683 z m -2.77613,1.27415 c -0.0648,-0.83674 -0.19364,-1.5949 -0.28635,-1.6848 -0.0927,-0.0899 -0.56832,-0.23831 -1.05691,-0.32981 -0.85255,-0.15965 -0.88136,-0.13849 -0.71482,0.52505 0.0954,0.38027 0.23761,1.06446 0.31593,1.52043 0.23766,1.38362 0.31669,1.49049 1.10226,1.49049 h 0.75768 z m -2.63965,-0.61422 -0.11986,-1.7387 -1.05768,-0.28231 -1.05769,-0.28232 0.16649,0.83039 c 0.0916,0.45672 0.23817,1.27744 0.32577,1.82383 0.13354,0.83294 0.29271,1.02954 0.98516,1.21693 0.45423,0.12293 0.83753,0.21166 0.85177,0.19719 0.0142,-0.0145 -0.028,-0.80872 -0.094,-1.76501 z m 42.4226,1.52815 c 0.0226,-0.0297 0.10287,-0.86057 0.17841,-1.84634 l 0.13735,-1.79231 -0.96223,0.17342 c -1.355,0.24419 -1.43501,0.32739 -1.27327,1.32408 0.0793,0.48858 0.037,1.2619 -0.0939,1.7185 l -0.2381,0.83018 1.10536,-0.17675 c 0.60794,-0.0972 1.12383,-0.20107 1.14642,-0.23078 z m 1.91068,-0.47225 c 0.71981,-0.25093 0.8397,-0.43717 0.97931,-1.52136 0.0875,-0.67948 0.20127,-1.44378 0.25282,-1.69844 0.10128,-0.5003 -0.13967,-0.55196 -1.39944,-0.3 -0.7777,0.15554 -0.81324,0.21932 -0.77405,1.38906 0.0226,0.67432 -0.0502,1.49393 -0.16183,1.82135 -0.22926,0.67267 -0.0684,0.71779 1.10319,0.30939 z m -46.94769,-0.9516 c -0.22359,-0.53512 -0.35616,-1.31609 -0.2946,-1.7355 0.0915,-0.6233 -0.0227,-0.83217 -0.62518,-1.14372 -0.4054,-0.20965 -0.80253,-0.38117 -0.88252,-0.38117 -0.21806,0 -0.16727,2.7331 0.0571,3.07039 0.19652,0.29549 1.62566,1.13281 1.96682,1.15235 0.10172,0.006 0.002,-0.42723 -0.22158,-0.96235 z m 49.39883,-0.0947 c 0.41768,-0.22354 0.51177,-0.56247 0.51177,-1.84356 0,-1.4853 -0.03,-1.55857 -0.55771,-1.36335 -0.47861,0.17705 -0.56304,0.43852 -0.59531,1.84372 -0.0207,0.90057 -1e-5,1.63733 0.0459,1.63724 0.046,-9e-5 0.31384,-0.12341 0.59532,-0.27405 z m -15.36323,-1.57267 c 3.56079,-0.30403 9.14872,-1.0017 9.78092,-1.22117 0.22842,-0.0793 -0.75171,-0.73957 -2.38125,-1.60414 -4.0066,-2.12574 -5.95235,-3.29102 -8.26103,-4.94742 l -2.04378,-1.46635 -1.52399,0.71418 c -1.43295,0.6715 -1.7453,0.71353 -5.22816,0.70346 -3.15148,-0.009 -3.95469,-0.0996 -5.38317,-0.60666 -1.06064,-0.37648 -1.79146,-0.50692 -1.98437,-0.35419 -3.48863,2.762 -5.89068,4.50835 -7.89447,5.73949 -1.35579,0.833 -2.67343,1.69702 -2.92809,1.92004 -0.28716,0.25149 -0.46303,0.29064 -0.46303,0.1031 0,-0.60439 5.90608,-4.97371 9.69142,-7.16973 l 1.68542,-0.97778 -0.7744,-0.74192 c -0.42592,-0.40806 -0.91608,-1.08397 -1.08924,-1.50201 l -0.31483,-0.76008 -0.82887,0.69897 c -0.45588,0.38443 -3.7366,2.11803 -7.2905,3.85245 -3.55389,1.73442 -6.99436,3.52002 -7.64547,3.96799 l -1.18385,0.81451 0.8986,0.47874 c 0.49423,0.2633 1.08494,0.48373 1.31269,0.48982 0.22775,0.006 1.62316,-0.75799 3.10092,-1.69799 2.83735,-1.80483 9.34154,-5.58415 10.90478,-6.33631 l 0.92604,-0.44558 -0.79375,0.68003 c -1.76505,1.51217 -6.2076,4.30301 -9.71099,6.10051 -2.0422,1.0478 -3.6097,1.9681 -3.48334,2.0451 0.12636,0.077 1.36084,0.38224 2.74329,0.6783 2.17904,0.46664 4.1237,0.73226 8.86354,1.21064 1.93811,0.19561 17.94239,-0.0794 21.29896,-0.366 z m 13.0589,-1.97212 c 1.28676,-0.35402 2.38678,-0.69089 2.4445,-0.7486 0.23281,-0.23282 -1.20102,-1.25129 -3.20028,-2.2732 -1.16416,-0.59505 -4.08119,-2.02945 -6.48229,-3.18753 -2.40109,-1.15809 -4.96086,-2.53092 -5.68838,-3.05075 l -1.32275,-0.94513 -0.23633,0.72809 c -0.12998,0.40045 -0.45839,1.04542 -0.72981,1.43326 l -0.49348,0.70518 3.59004,1.89476 c 3.37634,1.78196 8.90083,5.26397 9.25121,5.83091 0.21333,0.34517 0.19976,0.34701 2.86757,-0.38699 z m -4.72453,-3.152 c -5.41994,-2.78836 -10.31021,-5.64455 -9.12812,-5.33133 1.27528,0.33791 9.15421,4.32941 11.77396,5.96474 4.86219,3.03513 4.15665,2.86623 -2.64584,-0.63341 z m -13.18061,-4.02444 c 1.60644,-0.45274 2.83624,-1.40038 3.21047,-2.47388 0.22414,-0.643 0.16143,-0.9185 -0.39577,-1.7385 -1.91842,-2.8232 -2.85519,-6.57267 -2.66922,-10.68368 0.14972,-3.30972 0.63406,-4.91255 2.76586,-9.15308 1.87262,-3.72498 1.88294,-3.78748 0.66124,-4.00746 -0.53642,-0.0966 -1.11891,-0.2894 -1.29444,-0.42847 -0.17552,-0.13907 -0.44205,-0.1769 -0.59228,-0.0841 -0.16267,0.10053 -0.20971,0.003 -0.1163,-0.23993 0.10553,-0.27498 0.35605,-0.35873 0.76561,-0.25594 0.52982,0.13298 0.75384,-0.0914 1.72756,-1.73042 0.61533,-1.03577 1.07312,-1.91297 1.0173,-1.94933 -0.0558,-0.0364 -0.30367,-0.22047 -0.55076,-0.40911 -0.40078,-0.30597 -0.56354,-0.11942 -1.50813,1.72851 -1.70006,3.3259 -1.25058,2.09427 0.99917,-2.73784 3.08573,-6.62768 5.87909,-12.12597 8.55288,-16.83504 3.09271,-5.44686 6.01257,-11.51531 7.21752,-15.00041 1.10824,-3.20539 1.87561,-7.341516 2.13864,-11.527312 l 0.18402,-2.928361 -0.8945,-0.285774 c -0.84936,-0.271348 -0.85857,-0.287136 -0.18252,-0.312782 0.3916,-0.01487 0.76292,-0.116308 0.82515,-0.225449 0.26217,-0.459735 -0.27213,-5.200727 -0.59837,-5.309473 -0.24727,-0.08242 -0.2558,-0.162693 -0.032,-0.301011 0.4708,-0.290968 -0.20973,-5.038995 -0.72222,-5.038995 -0.29804,0 -0.31395,-0.08155 -0.0726,-0.372322 0.23566,-0.283956 0.23495,-0.802034 -0.003,-2.182813 -0.45424,-2.636128 -0.63322,-2.998282 -1.49145,-3.017887 l -0.73416,-0.01678 0.65177,-0.26017 c 0.35847,-0.143095 0.69427,-0.302675 0.74622,-0.354624 0.052,-0.05195 -0.10881,-1.117949 -0.35724,-2.368891 -0.41449,-2.087123 -0.50318,-2.274435 -1.07694,-2.274435 -0.34389,0 -0.62525,-0.119063 -0.62525,-0.264584 0,-0.14552 0.23812,-0.264583 0.52917,-0.264583 0.60733,0 0.61188,-0.06645 0.16314,-2.38125 -0.31757,-1.638199 -0.36701,-1.716177 -1.04202,-1.643631 -0.38974,0.04189 -0.70862,-0.04741 -0.70862,-0.198438 0,-0.151029 0.14882,-0.276421 0.33072,-0.278648 0.83905,-0.01027 0.95096,-0.363466 0.62725,-1.979428 l -0.31745,-1.584722 -1.04787,0.08897 c -0.57632,0.04893 -1.09894,0.13887 -1.16137,0.199867 -0.17116,0.167219 0.65737,4.632952 1.96044,10.566818 1.54767,7.047672 2.20691,11.015456 2.54672,15.327948 0.52382,6.647579 -0.48206,14.260616 -2.80537,21.23257 -1.12689,3.38166 -4.28471,10.64648 -5.05539,11.63035 -0.20726,0.26458 0.0515,-0.47145 0.57493,-1.63562 4.55574,-10.13173 6.13562,-16.414234 6.38742,-25.39999 0.17609,-6.283918 -0.16655,-9.268251 -2.28724,-19.921432 -0.86054,-4.3229 -1.7035,-8.723021 -1.87324,-9.778048 -0.16974,-1.055026 -0.44073,-1.918229 -0.60221,-1.918229 -0.19029,0 -0.20301,-0.09058 -0.0362,-0.257423 0.20577,-0.205772 -0.12024,-4.257858 -0.40503,-5.034243 -0.0267,-0.07276 -0.0326,-1.05419 -0.0131,-2.180956 0.0195,-1.126767 -0.0213,-2.140476 -0.0906,-2.252691 -0.0694,-0.112215 -0.68887,-0.159269 -1.3767,-0.104564 l -1.2506,0.09946 0.18541,3.343852 c 0.24209,4.366059 0.53267,6.661589 1.50481,11.887684 0.441,2.370776 0.76307,4.426747 0.71571,4.568828 -0.0474,0.142081 -0.59629,-1.75677 -1.21984,-4.21967 -1.54306,-6.09477 -1.98962,-9.710939 -1.84544,-14.943873 l 0.11569,-4.1988 -1.3448,0.161604 c -0.73964,0.08888 -1.62955,0.16264 -1.97759,0.163905 l -0.63279,0.0024 0.15044,6.151562 c 0.14154,5.787951 0.64496,11.329541 1.66072,18.280971 0.23057,1.577943 0.37128,2.916933 0.31268,2.975528 -0.26609,0.266094 -2.08243,-9.648942 -2.55917,-13.97003 -0.41326,-3.745751 -0.35217,-11.506245 0.11497,-14.605603 0.50706,-3.364172 0.51005,-3.310808 -0.17522,-3.131606 -0.39091,0.102227 -0.51095,0.05278 -0.38126,-0.157062 0.1041,-0.168442 0.42038,-0.30626 0.70283,-0.30626 0.30101,0 0.52625,-0.191625 0.54424,-0.463021 0.0262,-0.395931 0.0473,-0.400889 0.14511,-0.03421 0.10406,0.390015 0.29879,0.394648 2.15212,0.0512 1.20658,-0.223597 2.1726,-0.554019 2.36844,-0.810114 0.19691,-0.257506 0.33072,-0.302946 0.33072,-0.112306 0,0.362122 0.46926,0.283118 3.3073,-0.556836 1.01864,-0.30148 2.00182,-0.576535 2.18483,-0.611233 0.183,-0.0347 1.10574,-0.340315 2.05052,-0.679148 l 1.71777,-0.616143 v -1.155155 c 0,-0.823736 -0.0949,-1.114267 -0.33073,-1.012648 -0.1819,0.07838 -1.168,0.501483 -2.19133,0.940237 -10.96137,4.699677 -36.7941,4.573984 -47.39035,-0.230582 -0.96499,-0.43755 -1.81581,-0.795544 -1.89071,-0.795544 -0.13208,0 0.13797,7.965189 0.27392,8.079428 0.0373,0.03131 0.33563,0.139263 0.66306,0.239908 0.55016,0.169111 0.59832,0.09635 0.63505,-0.959318 l 0.0397,-1.14231 0.15869,1.180042 c 0.1303,0.968849 0.27708,1.212734 0.82016,1.362689 1.20927,0.333909 1.29087,0.274074 1.39302,-1.021376 l 0.0991,-1.256771 0.0477,1.330219 0.0477,1.330219 2.43485,0.918739 c 1.33917,0.505307 2.53078,0.958755 2.64803,1.007666 0.11725,0.04891 0.13613,-1.498904 0.042,-3.439584 -0.0942,-1.940681 -0.10355,-3.467449 -0.0209,-3.392818 0.29952,0.270272 0.98079,7.342373 0.9811,10.184681 5.3e-4,3.624021 -0.58333,8.628674 -1.44708,12.40672 -0.67739,2.96286 -1.15287,4.12836 -0.82061,2.01145 0.82386,-5.2489 1.77238,-16.987994 1.40252,-17.357855 -0.12479,-0.124788 -4.77834,-1.144921 -4.85501,-1.064297 -0.0176,0.01849 -0.0907,0.892918 -0.16249,1.943184 l -0.13053,1.909572 0.95453,0.315024 c 0.52499,0.173262 1.43155,0.542467 2.01458,0.820454 l 1.06004,0.505434 -1.19063,-0.157435 c -0.65484,-0.08659 -1.56237,-0.224171 -2.01673,-0.305742 -0.77003,-0.138237 -0.83621,-0.08836 -0.97471,0.734698 -0.48237,2.866445 -0.49424,3.131978 -0.14067,3.145615 0.1947,0.0075 1.06836,0.307179 1.94149,0.665938 l 1.5875,0.652288 -1.45521,-0.127072 c -0.80036,-0.06989 -1.70607,-0.200403 -2.01268,-0.290028 -0.49874,-0.145788 -0.60171,0.0127 -0.97746,1.504333 -0.23099,0.917007 -0.39345,1.693823 -0.36102,1.726256 0.0324,0.03243 0.55869,0.171249 1.16946,0.30848 l 1.11049,0.24951 0.1604,-0.962617 c 0.0882,-0.52944 0.27042,-1.260272 0.4049,-1.624074 l 0.24449,-0.661458 -0.11622,0.661458 c -1.76647,10.053535 -2.56707,17.334823 -2.72008,24.738542 -0.15514,7.506492 0.19863,11.691917 1.51396,17.911716 2.06185,9.749821 4.50185,16.219531 11.30045,29.963351 2.65947,5.3763 4.83241,9.90067 4.82877,10.05417 -0.004,0.1535 -1.05168,-1.74497 -2.32896,-4.21883 -1.27728,-2.47385 -3.1275,-5.95528 -4.11159,-7.73651 -4.5381,-8.21399 -7.95542,-16.78625 -9.9531,-24.96706 -2.93927,-12.036762 -2.95485,-22.561641 -0.0572,-38.667733 l 0.74971,-4.167188 h -1.22916 -1.22916 l -0.44194,2.056567 c -0.58663,2.729925 -0.57742,2.803231 0.41796,3.326897 l 0.8599,0.452385 -0.99219,-0.123167 c -0.5457,-0.06774 -0.99457,-0.04135 -0.99747,0.05864 -0.003,0.09999 -0.16913,1.189762 -0.36937,2.42171 -0.33061,2.034 -0.32404,2.270368 0.0714,2.571274 0.40322,0.306795 0.40331,0.331988 0.001,0.33978 -0.49796,0.0097 -0.64384,0.493835 -0.89934,2.984977 -0.17436,1.700014 -0.15623,1.785937 0.37681,1.785937 0.308,0 0.55999,0.119063 0.55999,0.264584 0,0.14552 -0.27874,0.264583 -0.61942,0.264583 -0.60896,0 -0.62464,0.0682 -0.92775,4.034896 -0.63124,8.260718 -0.37228,11.745894 1.42831,19.222977 0.88671,3.682121 4.27955,14.283891 5.34526,16.702571 0.2865,0.65024 1.02442,2.39696 1.63982,3.8816 1.19493,2.88276 1.3037,3.0318 2.52649,3.46195 l 0.79375,0.27922 -0.7276,0.0209 c -0.40018,0.0115 -0.72761,0.10013 -0.72761,0.19699 0,0.2618 2.89963,5.66188 3.49272,6.50463 0.32257,0.45835 0.77466,0.74094 1.22165,0.76363 0.65241,0.0331 0.65999,0.0455 0.0941,0.15335 -0.43236,0.0824 -0.56762,0.24218 -0.45451,0.53693 0.29052,0.75709 2.57549,4.30078 2.77313,4.30078 0.10621,0 0.19433,0.14882 0.19583,0.33072 0.002,0.18191 0.51175,1.16417 1.13389,2.18282 0.62215,1.01864 1.18358,1.94138 1.24762,2.05052 0.064,0.10914 0.0594,0.19844 -0.0102,0.19844 -0.0697,0 -0.7613,-1.01184 -1.53697,-2.24853 -1.21313,-1.93414 -1.51204,-2.24858 -2.13792,-2.24896 -0.40018,-2.4e-4 -0.7276,0.055 -0.7276,0.12275 0,0.0677 0.42764,0.90119 0.95032,1.85209 0.52268,0.95089 0.89011,1.7289 0.81652,1.7289 -0.0736,0 -0.56574,-0.77238 -1.09366,-1.7164 -1.01286,-1.81115 -1.32253,-2.07506 -2.75373,-2.34677 -0.87139,-0.16543 -0.88195,-0.15656 -0.50701,0.42575 0.21062,0.32709 0.88423,1.45791 1.49692,2.51294 0.80926,1.39351 1.27363,1.93159 1.69762,1.96707 1.44692,0.12108 1.66521,0.15325 2.03885,0.30048 0.21828,0.086 0.97524,0.21417 1.68213,0.28479 1.43072,0.14294 1.78881,0.32726 1.12824,0.58075 -0.50489,0.19374 -3.43174,-0.008 -4.35803,-0.30037 -0.61401,-0.19382 -0.6166,-0.1865 -0.21137,0.59712 0.76974,1.48852 4.5763,2.69516 9.16736,2.90596 3.8204,0.17541 5.65621,-0.15267 8.28352,-1.48033 2.23941,-1.13166 2.22442,-0.74906 -0.0272,0.69418 -1.98202,1.27043 -5.16472,2.03492 -7.67982,1.8447 -1.913,-0.14468 -1.94792,-0.13621 -1.77061,0.42929 1.57483,5.0225 2.13074,9.27303 1.89215,14.4675 -0.15301,3.3315 -0.2989,4.35688 -0.99196,6.97202 -0.39313,1.48343 -0.54972,1.02839 -0.22207,-0.64534 0.35543,-1.81564 0.34825,-12.24672 -0.0105,-15.2776 -0.14933,-1.26163 -0.45352,-3.14019 -0.67596,-4.17459 l -0.40444,-1.88072 -2.17311,-0.57407 c -1.19521,-0.31575 -2.69128,-0.86841 -3.32459,-1.22814 -0.63321,-0.35972 -1.19336,-0.65405 -1.24467,-0.65405 -0.0513,0 0.48656,1.16086 1.19528,2.57969 2.18391,4.37209 2.52667,5.7199 2.50637,9.85573 -0.0154,3.13038 -0.10442,3.8335 -0.72057,5.68854 -0.38667,1.16417 -1.12292,2.75214 -1.63612,3.52882 -0.51319,0.77669 -0.93307,1.57639 -0.93307,1.77712 0,0.68246 1.80388,2.17615 3.18011,2.63326 2.83433,0.94141 7.88545,1.05783 10.75906,0.24797 z m -1.33617,-1.37415 c -2.10462,-4.16494 -3.00716,-10.31464 -2.28129,-15.54427 0.28587,-2.05958 1.32908,-6.56135 1.48448,-6.40596 0.0548,0.0548 -0.0831,1.39945 -0.30642,2.98818 -0.47587,3.38585 -0.53255,9.67841 -0.11394,12.64857 0.29397,2.08577 1.36004,6.13806 1.8611,7.0743 0.14599,0.27277 0.20372,0.49595 0.12829,0.49595 -0.0754,0 -0.42293,-0.56554 -0.77222,-1.25677 z m -10.07379,-1.76032 c 2.30727,-5.33907 2.36245,-12.70511 0.14777,-19.72572 -0.29641,-0.93964 -0.49642,-1.75095 -0.44445,-1.80291 0.14586,-0.14587 1.92105,4.6252 2.4386,6.55406 0.33053,1.23187 0.46525,2.77068 0.47484,5.42395 0.0144,3.97114 -0.42921,6.10249 -1.84326,8.85687 -0.99301,1.93425 -1.50994,2.39788 -0.7735,0.69375 z m 12.30044,-1.0178 c -1.38604,-2.9925 -1.88045,-5.08776 -2.05284,-8.69987 -0.16921,-3.54555 0.1892,-6.51325 1.15637,-9.57489 0.7557,-2.39221 1.10777,-2.58102 0.51343,-0.27534 -1.42483,5.52746 -1.02967,13.86542 0.89168,18.81468 0.40957,1.05503 0.69016,1.91823 0.62353,1.91823 -0.0666,0 -0.57611,-0.98227 -1.13217,-2.18281 z m -4.89817,-23.0849 c 1.17825,-14.89819 1.54475,-24.99583 1.40207,-38.62916 -0.11444,-10.935117 -0.0113,-11.532493 0.55252,-3.20008 0.36179,5.34673 0.36822,19.64528 0.0113,25.16501 -0.30312,4.68794 -1.43405,15.20589 -1.83448,17.06111 -0.25,1.15825 -0.25357,1.14745 -0.13143,-0.39688 z m 2.79198,0.89293 c -0.0129,-0.091 0.39793,-1.09011 0.91297,-2.2203 1.55042,-3.40216 4.2251,-10.34563 5.50195,-14.28305 3.73902,-11.52997 5.0733,-20.17459 5.43144,-35.189572 l 0.18302,-7.672917 0.22812,5.027083 c 0.2635,5.80679 0.0482,13.453486 -0.51563,18.315206 -1.02849,8.86795 -2.62106,15.02288 -6.24884,24.15041 -1.62628,4.09174 -5.43044,12.31439 -5.49303,11.87314 z m -5.15395,-1.74567 c -1.69728,-12.10023 -2.74857,-32.01452 -2.40628,-45.581627 0.34011,-13.481214 0.52677,-13.241481 0.72102,0.926042 0.22915,16.713145 0.81406,31.050385 1.67719,41.111405 0.37795,4.40552 0.38206,6.21042 0.008,3.54418 z m -2.66333,-2.37174 c -4.91643,-16.72196 -6.07909,-37.24674 -3.60175,-63.582804 l 0.21155,-2.248958 0.0299,1.719791 c 0.0164,0.945886 -0.0869,4.160573 -0.22955,7.14375 -0.35593,7.441208 -0.3561,25.672871 -2.7e-4,30.823951 0.67999,9.84412 1.84978,17.80752 3.69033,25.12197 0.58402,2.32093 1.02327,4.25847 0.97611,4.30563 -0.0472,0.0472 -0.53149,-1.43034 -1.07629,-3.28333 z m 7.66244,1.38875 c 2.55703,-5.61103 4.52147,-13.40807 6.07027,-24.09344 1.27103,-8.76905 1.33714,-9.84824 1.33714,-21.828114 0,-11.71426 0.10053,-12.210695 0.6761,-3.338817 1.11137,17.130881 -1.89798,36.779591 -7.43066,48.516411 -0.70313,1.49159 -1.33945,2.71198 -1.41406,2.71198 -0.0746,0 0.26794,-0.88561 0.76121,-1.96802 z m -13.43919,-14.37071 c -3.10871,-6.44691 -5.27331,-12.7459 -7.02347,-20.43835 -1.43762,-6.318757 -1.92633,-10.391507 -2.03192,-16.933327 l -0.0961,-5.953125 0.3445,4.630208 c 0.38824,5.218078 0.50664,6.238719 1.24304,10.715625 1.54943,9.419739 4.62471,20.176289 8.01256,28.025949 0.81176,1.88085 1.43753,3.45811 1.39061,3.50503 -0.0469,0.0469 -0.87458,-1.55148 -1.83923,-3.55201 z m 14.73477,1.38977 c 1.08549,-7.95919 1.25643,-12.00602 1.41931,-33.602072 0.0856,-11.350625 0.24075,-20.093573 0.34476,-19.42877 0.10401,0.6648 0.3269,6.3798 0.49532,12.7 0.43943,16.490692 -0.0846,28.963432 -1.60012,38.081892 -0.53769,3.23517 -1.01657,4.86879 -0.65927,2.24895 z m -15.28585,-10.10037 c -0.43458,-1.42737 -1.25894,-5.69175 -1.73007,-8.94963 -1.06145,-7.33989 -1.35431,-16.032072 -0.79618,-23.630617 0.50405,-6.862204 0.71382,-7.025161 0.57471,-0.446455 -0.21426,10.133174 0.55253,23.354892 1.77228,30.559372 0.44326,2.61806 0.51161,3.55892 0.17926,2.46733 z m 27.35081,-6.93613 c 0,-0.1295 0.22837,-1.34989 0.5075,-2.71198 1.07073,-5.22498 1.90361,-12.155324 2.26905,-18.880676 0.13914,-2.560682 -0.17283,-9.970584 -0.52912,-12.567708 -0.12687,-0.924764 -0.12668,-0.924946 0.13258,-0.132292 0.44057,1.346931 1.03149,6.184191 1.21269,9.927024 0.28927,5.975038 -0.51152,12.795129 -2.43036,20.698492 -0.83461,3.43763 -1.16234,4.47161 -1.16234,3.66714 z M 122.73925,69.046781 c 0,-0.0849 0.23712,-1.083064 0.52694,-2.218156 1.63358,-6.398078 2.37274,-14.860572 1.88944,-21.631709 -0.17199,-2.409759 -0.26361,-4.430485 -0.2036,-4.490503 0.14412,-0.144116 0.61664,2.636774 0.95296,5.608264 0.57858,5.112102 0.14967,11.777782 -1.07257,16.66875 -0.85093,3.405079 -2.09317,7.003527 -2.09317,6.063354 z m 21.74566,-4.772584 c -0.79125,-6.958333 -0.90658,-9.436611 -0.74964,-16.107437 0.20992,-8.922348 0.63543,-10.866694 0.67273,-3.074019 0.0149,3.111479 0.15663,9.152237 0.31495,13.423906 0.15833,4.271669 0.23796,7.916378 0.17697,8.099353 -0.061,0.182976 -0.24775,-0.870836 -0.41501,-2.341803 z m -15.03759,-4.201186 c 0.092,-1.018646 0.18037,-5.95974 0.1963,-10.980209 0.0301,-9.479613 0.21855,-10.311741 0.77902,-3.439583 0.33982,4.16669 0.19585,8.399317 -0.44539,13.093975 -0.44959,3.291666 -0.78289,4.125529 -0.52993,1.325817 z M 116.12467,40.235335 c -0.80036,-0.185118 -1.89252,-0.52787 -2.427,-0.761669 -0.74232,-0.324713 -1.00292,-0.348168 -1.10359,-0.09933 -0.0808,0.199803 -0.13988,0.157673 -0.15269,-0.108952 -0.0115,-0.239094 -0.21652,-0.509786 -0.45563,-0.601541 -0.23911,-0.09175 -0.36776,-0.23381 -0.28589,-0.31568 0.26875,-0.268748 3.99434,0.713973 5.61543,1.481217 1.77517,0.840171 1.33524,0.990169 -1.19063,0.405958 z m 32.39851,98.988805 c 0.51644,-0.92349 0.93899,-1.75693 0.93899,-1.85208 0,-0.0952 -0.41383,-0.17301 -0.91962,-0.17301 -0.83927,0 -1.01173,0.1445 -1.97356,1.65364 l -1.05393,1.65365 0.71678,0.16713 c 0.39424,0.0919 0.85979,0.18122 1.03457,0.19844 0.17478,0.0172 0.74032,-0.72428 1.25677,-1.64777 z m 3.28463,-5.52177 0.59674,-0.98314 -0.67685,-0.16987 c -0.37227,-0.0934 -0.83478,-0.10928 -1.02782,-0.0352 -0.33759,0.12954 -2.29604,3.19549 -2.29604,3.59444 0,0.107 0.32742,0.31388 0.7276,0.45973 0.7849,0.28606 0.72276,0.3526 2.67637,-2.86596 z m -2.72626,0.41561 1.11494,-1.89044 -0.71802,-0.53085 -0.71801,-0.53086 -1.11024,2.23861 c -1.14186,2.30238 -1.18746,2.82614 -0.23378,2.68526 0.36183,-0.0535 0.93184,-0.72842 1.66511,-1.97172 z m -22.27278,0.63367 c -1.55797,-2.64169 -2.29762,-3.59166 -2.88371,-3.7037 -0.36115,-0.069 -0.65664,-0.0683 -0.65664,0.002 0,0.29131 1.96196,3.39778 2.33814,3.70209 0.22486,0.1819 0.63123,0.33073 0.90305,0.33073 0.323,0 0.42664,-0.11457 0.29916,-0.33073 z m -1.95285,-0.077 c 0,-0.30085 -2.52399,-4.08913 -2.72476,-4.08962 -0.11617,-2.7e-4 -0.68171,-0.22784 -1.25677,-0.50567 -0.57505,-0.27784 -1.04555,-0.46863 -1.04555,-0.42397 0,0.0447 0.66227,1.15795 1.47172,2.474 1.29152,2.09982 1.57499,2.40572 2.3151,2.49829 0.46387,0.058 0.93268,0.12453 1.04182,0.14782 0.10914,0.0233 0.19844,-0.0221 0.19844,-0.10085 z m 28.97187,-4.27198 c 0.58209,-0.96806 1.09347,-1.84529 1.13642,-1.94942 0.0429,-0.10412 -0.34431,-0.23862 -0.86057,-0.29889 -0.90036,-0.10511 -0.97642,-0.0462 -1.86402,1.44383 -0.50895,0.85438 -0.92537,1.64575 -0.92537,1.7586 0,0.17983 0.96239,0.75649 1.32292,0.79269 0.0728,0.007 0.60854,-0.77876 1.19062,-1.74681 z m -2.2008,-0.67805 c 0.95522,-1.65216 0.95557,-1.65394 0.38782,-1.975 -0.31255,-0.17675 -0.75107,-0.32558 -0.9745,-0.33073 -0.53978,-0.0125 -2.25021,3.40206 -1.77794,3.54932 0.18265,0.057 0.51068,0.16311 0.72897,0.23591 0.21828,0.0728 0.46048,0.14177 0.53822,0.15325 0.0777,0.0115 0.57159,-0.72325 1.09743,-1.63275 z m -27.91402,0.13229 c -0.0637,-0.10914 -0.92009,-1.62719 -1.90306,-3.37344 -0.98297,-1.74625 -1.8214,-3.21518 -1.86318,-3.26428 -0.1637,-0.19239 -1.99275,-0.51131 -1.91763,-0.33437 0.41993,0.98912 4.40674,6.9119 4.71015,6.99736 0.68166,0.192 1.09431,0.18129 0.97372,-0.0253 z m -3.04007,-1.71979 c -3.44102,-5.28759 -3.8143,-5.77259 -4.74087,-6.15973 -0.52082,-0.21761 -0.97142,-0.36433 -1.00134,-0.32604 -0.0299,0.0383 0.9111,1.63475 2.09115,3.54769 1.70678,2.7668 2.30786,3.5323 2.93929,3.7433 1.37578,0.45972 1.46747,0.356 0.71177,-0.80522 z m 36.3103,-2.8819 c 0.81826,-1.33038 1.45279,-2.45383 1.41007,-2.49655 -0.0427,-0.0427 -0.56544,-0.0123 -1.16157,0.0677 -1.02497,0.13748 -1.14408,0.25118 -2.19138,2.09193 -0.60913,1.07059 -1.1084,2.03933 -1.10948,2.15274 -0.002,0.17256 0.72898,0.47521 1.39224,0.57669 0.0948,0.0145 0.84186,-1.06212 1.66012,-2.3925 z m -2.65102,-0.26763 c 0.67224,-1.18653 1.1796,-2.19999 1.12747,-2.25213 -0.0521,-0.0521 -0.54391,-0.12313 -1.09283,-0.15776 -0.98895,-0.0624 -1.00857,-0.044 -2.15759,2.02004 -0.63776,1.14566 -1.15956,2.12074 -1.15956,2.16684 0,0.0461 0.44648,0.13053 0.99219,0.18761 0.5457,0.0571 1.00925,0.1238 1.03012,0.14826 0.0208,0.0245 0.58795,-0.92632 1.2602,-2.11286 z m -36.06746,-5.49522 c -0.59495,-1.32128 -1.08172,-2.50475 -1.08172,-2.62993 0,-0.12517 -0.71437,-0.40211 -1.5875,-0.61542 -0.87312,-0.2133 -1.5875,-0.35772 -1.5875,-0.32092 0,0.0368 0.69791,1.29607 1.55091,2.7984 1.41558,2.49318 1.64067,2.75732 2.57969,3.02725 0.56583,0.16265 1.06907,0.26135 1.1183,0.21934 0.0492,-0.042 -0.39724,-1.15744 -0.99218,-2.47872 z m 42.03513,0.3684 c 0.73323,-1.24139 1.33315,-2.28591 1.33315,-2.32116 0,-0.0352 -0.4959,-0.0614 -1.10201,-0.058 -1.09506,0.006 -1.10993,0.0194 -2.35428,2.12272 -1.31482,2.22241 -1.30674,2.5017 0.0726,2.50949 0.62129,0.004 0.89592,-0.29824 2.05052,-2.25302 z m -2.87259,-0.38025 1.27934,-2.24046 -0.8161,-0.51672 c -0.68629,-0.43453 -0.85223,-0.45692 -1.04329,-0.14079 -0.12496,0.20676 -0.88589,1.4838 -1.69096,2.83787 l -1.46377,2.46196 1.22773,-0.0807 1.22772,-0.0807 z m -41.30259,1.76307 c 0,-0.0443 -0.7627,-1.41718 -1.6949,-3.05088 -1.18819,-2.08232 -1.98272,-3.16568 -2.65759,-3.62366 -0.52947,-0.35931 -1.02723,-0.65329 -1.10613,-0.65329 -0.13221,0 2.08671,4.29679 3.24144,6.27683 0.27357,0.46908 0.67598,0.90176 0.89426,0.9615 0.50819,0.13909 1.32292,0.1942 1.32292,0.0895 z m 46.66502,-5.93877 c 0.49433,-0.98226 1.08506,-2.23242 1.31275,-2.77812 l 0.41398,-0.99219 h -0.8652 c -0.81095,0 -0.94698,0.14431 -2.16932,2.30144 -0.71726,1.2658 -1.33982,2.38498 -1.38348,2.48709 -0.0694,0.16229 1.05718,0.689 1.5974,0.74683 0.10731,0.0115 0.59956,-0.78278 1.09387,-1.76505 z m -2.25542,-1.39303 1.32732,-2.38522 -0.94867,-0.39638 c -0.52177,-0.218 -0.97608,-0.36505 -1.00958,-0.32676 -0.0515,0.0589 -2.20477,4.22712 -2.44837,4.73952 -0.0703,0.1478 1.05518,0.67138 1.57595,0.73317 0.0968,0.0115 0.77333,-1.05246 1.50335,-2.36433 z m -44.59372,0.0701 c -1.33072,-3.4465 -3.73355,-10.81488 -4.61461,-14.150967 l -0.88981,-3.369201 -1.14339,-0.391496 -1.14339,-0.391494 0.13418,0.717987 c 0.0738,0.394896 0.20815,1.313301 0.29856,2.040906 0.25042,2.015285 0.35723,2.216985 1.4764,2.787935 1.28608,0.65611 1.32675,0.89679 0.11306,0.6691 -1.11434,-0.20905 -1.10837,-0.2573 -0.3502,2.83417 l 0.57584,2.34802 1.60697,0.77386 1.60697,0.77386 -1.37742,-0.14011 -1.37741,-0.14011 0.50519,1.46838 c 0.27786,0.8076 0.82014,2.17016 1.20507,3.0279 0.6406,1.42745 0.82652,1.61598 2.19514,2.22595 0.8224,0.36653 1.57922,0.67425 1.68184,0.68383 0.10262,0.01 -0.12372,-0.78626 -0.50299,-1.76852 z m -5.08228,-3.12081 c -1.00232,-2.51812 -1.36693,-3.15007 -2.07579,-3.59786 -1.12861,-0.71294 -1.10778,-0.49989 0.30031,3.07235 0.96451,2.44688 1.26413,2.95343 1.9101,3.22921 0.42139,0.1799 0.83706,0.33246 0.92372,0.33903 0.0867,0.007 -0.3896,-1.36267 -1.05834,-3.04273 z m 54.73787,-2.17086 c 1.17975,-3.25855 1.26072,-3.77031 0.59654,-3.77031 -0.36179,0 -0.59185,0.23424 -0.71461,0.7276 -0.0996,0.40018 -0.63756,1.70352 -1.19553,2.8963 -0.6753,1.44362 -0.91185,2.21066 -0.70753,2.29421 0.95467,0.39041 1.19441,0.13564 2.02113,-2.1478 z m -2.6743,0.79375 c 0.87176,-1.70992 1.89194,-4.38176 1.73444,-4.54245 -0.083,-0.0847 -0.52359,-0.28168 -0.97918,-0.43786 l -0.82833,-0.28396 -1.2602,2.91983 c -1.33691,3.09756 -1.32975,3.32453 0.1052,3.33258 0.5701,0.003 0.82877,-0.20494 1.22807,-0.98814 z m -54.25149,-5.65934 c -0.5504,-2.4249 -0.605,-2.5306 -1.58439,-3.06706 l -1.01435,-0.55562 0.1569,0.70532 c 0.0863,0.38793 0.40017,1.64073 0.69749,2.78399 0.48374,1.8601 0.62716,2.1151 1.3639,2.42504 0.45282,0.1905 0.85193,0.31788 0.88691,0.28307 0.035,-0.0348 -0.19293,-1.19344 -0.50646,-2.57474 z m 58.88201,-1.78225 c 0.51269,-2.248899 0.49722,-2.524632 -0.12822,-2.284626 -0.39883,0.153043 -1.38663,4.003176 -1.13255,4.414296 0.37399,0.60512 0.8022,-0.1182 1.26077,-2.12967 z m -1.87648,-0.0946 c 0.23096,-1.05256 0.39806,-1.92973 0.37134,-1.949276 -0.0267,-0.01955 -0.4686,-0.111295 -0.98193,-0.203883 l -0.93334,-0.168341 -0.47966,1.78689 c -0.26382,0.98279 -0.53835,1.93571 -0.61007,2.11761 -0.0924,0.23443 0.21086,0.33073 1.04166,0.33073 h 1.17206 z m -57.8454,-2.177998 c -0.0818,-0.213159 -0.22893,-1.272746 -0.32697,-2.354636 -0.20096,-2.217594 -0.19095,-2.195486 -1.36686,-3.020409 l -0.8599,-0.603231 0.0166,0.867814 c 0.009,0.477301 0.15797,1.757461 0.33073,2.8448 0.26742,1.682994 0.41249,2.026685 0.97559,2.311205 0.89211,0.450765 1.41385,0.431455 1.23081,-0.04554 z m 58.61326,-1.872657 c 0.10222,-0.57589 0.19271,-1.612617 0.2011,-2.303841 0.0152,-1.252707 0.0124,-1.256771 -0.8728,-1.256771 h -0.88805 l -0.1717,1.785937 c -0.0944,0.982266 -0.24211,2.044748 -0.32816,2.361071 -0.14253,0.52392 -0.0661,0.570034 0.85865,0.517903 0.96122,-0.05419 1.02498,-0.112821 1.20096,-1.104299 z m 1.83573,0.313385 c 0.33836,-1.2652 0.56749,-4.138731 0.32967,-4.13453 -0.62056,0.01095 -0.86444,0.569183 -1.09684,2.510539 -0.1393,1.16359 -0.19853,2.2112 -0.13162,2.328024 0.22667,0.395779 0.70482,0.02125 0.89879,-0.704033 z m -58.09585,-3.146393 c -0.37627,-1.71918 -0.67353,-3.862168 -0.67353,-4.855599 0,-1.52681 -0.20995,-1.957422 -0.95435,-1.957422 -0.62632,0 -0.63287,0.02782 -0.60678,2.579688 0.0324,3.171645 0.1611,3.645151 1.16425,4.284263 1.04919,0.66844 1.22602,0.660029 1.07041,-0.05093 z m -3.15373,-4.069376 -0.13903,-3.077189 -0.83689,-0.508945 c -0.46029,-0.279918 -0.87168,-0.47276 -0.91419,-0.42854 -0.15536,0.161594 -0.18966,0.929426 -0.15896,3.557836 l 0.0314,2.68368 0.99219,0.41154 c 0.5457,0.226346 1.03097,0.417674 1.07838,0.425173 0.0474,0.0075 0.0236,-1.3711 -0.0528,-3.063555 z m 59.83933,0.232918 0.0769,-2.182813 h -0.93674 -0.93674 v 2.265723 2.265722 l 0.85989,-0.08291 0.8599,-0.08291 z m 2.17212,-0.322205 c 0,-2.62365 -0.003,-2.636168 -0.59532,-2.417749 -0.54952,0.202671 -0.60116,0.405506 -0.67139,2.637309 l -0.0761,2.417749 h 0.67139 0.67139 z m -2.7337,-2.815442 c 0.5227,-0.140208 0.56256,-0.286617 0.44925,-1.650034 -0.25801,-3.104562 -0.29975,-3.215965 -1.20482,-3.215965 h -0.81945 l 0.16998,1.626311 c 0.0935,0.894472 0.16999,2.025566 0.16999,2.513542 0,0.91099 0.17104,1.011553 1.23505,0.726146 z m -56.94025,-3.034387 c 0.10447,-1.611987 0.14956,-2.966416 0.10018,-3.009839 -0.0494,-0.04342 -0.34044,-0.155829 -0.6468,-0.24979 -0.51349,-0.157486 -0.57036,-0.04327 -0.72761,1.46115 -0.29389,2.811849 -0.21588,3.975177 0.29245,4.361054 0.25466,0.193317 0.537,0.355269 0.62742,0.359899 0.0904,0.0046 0.24988,-1.310484 0.35436,-2.922474 z m 59.69805,0.559597 c -0.0719,-2.653419 -0.18855,-2.943289 -1.05344,-2.618375 -0.6002,0.225478 -0.62382,0.320278 -0.46302,1.858692 0.0932,0.891604 0.16944,1.968728 0.16944,2.393609 0,0.681016 0.0834,0.762598 0.70386,0.688793 l 0.70386,-0.08372 z m -61.9148,-1.594218 c 0.0537,-2.503972 0.0519,-2.511457 -0.70513,-2.969347 -0.99422,-0.601369 -1.09538,-0.399847 -1.32478,2.638967 l -0.1821,2.412278 0.89667,0.378232 c 0.49316,0.208026 0.97876,0.304416 1.07911,0.214202 0.10034,-0.09022 0.20664,-1.293667 0.23623,-2.674332 z m 59.16588,-2.318345 c -0.0798,-0.400183 -0.22749,-1.457167 -0.32816,-2.348858 -0.23233,-2.057746 -0.38076,-2.293159 -1.30039,-2.062347 -0.6731,0.168936 -0.71827,0.259654 -0.56762,1.139822 0.09,0.525952 0.23901,1.640888 0.33107,2.477633 l 0.16738,1.521354 h 0.92143 c 0.86398,0 0.91237,-0.04536 0.77629,-0.727604 z m 2.34668,-0.529167 c -0.0955,-0.691224 -0.30714,-2.172467 -0.4703,-3.291652 l -0.29667,-2.034882 -0.76383,0.394994 c -0.51335,0.265465 -0.72131,0.542314 -0.63418,0.844254 0.0713,0.247097 0.26204,1.401765 0.42384,2.565932 0.38232,2.750859 0.39425,2.778125 1.21497,2.778125 0.68284,0 0.69559,-0.03048 0.52617,-1.256771 z m -59.06069,-0.529167 c 0.0704,-0.254661 0.20646,-1.564349 0.30227,-2.910417 l 0.1742,-2.447395 h -0.65757 c -0.6368,0 -0.66315,0.07312 -0.83434,2.315104 -0.0972,1.273307 -0.23193,2.51378 -0.29934,2.756606 -0.10849,0.390827 0.14547,0.57218 1.00609,0.718431 0.0993,0.01688 0.23824,-0.177667 0.30869,-0.432329 z m -1.80704,-3.943813 c 0.17984,-1.844368 0.16656,-1.905119 -0.51385,-2.350945 -0.38415,-0.251708 -0.74292,-0.411757 -0.79726,-0.355666 -0.23617,0.243806 -0.93475,5.903744 -0.75039,6.079816 0.11233,0.107288 0.5019,0.234918 0.8657,0.28362 0.75016,0.100425 0.86311,-0.24498 1.1958,-3.656825 z m 57.38723,-0.641043 c 0.14633,-0.136361 0.11059,-0.963562 -0.0902,-2.086928 l -0.33258,-1.861028 h -0.9307 c -0.83084,0 -0.91547,0.06388 -0.78875,0.595312 0.0781,0.327422 0.28563,1.342377 0.46126,2.255457 0.2899,1.507244 0.37085,1.644623 0.87892,1.491617 0.30779,-0.09269 0.6687,-0.270184 0.80202,-0.39443 z m 2.53572,-1.112856 c 0,-0.700021 -0.5546,-3.893434 -0.67617,-3.893434 -0.41068,0 -1.4405,0.683083 -1.4405,0.955487 0,0.349126 0.48865,2.906004 0.6581,3.443579 0.0527,0.167235 0.39339,0.240784 0.77626,0.167595 0.46925,-0.0897 0.68231,-0.299929 0.68231,-0.673227 z m -57.2084,-2.499844 c 0.21784,-1.552448 0.21165,-2.093979 -0.0257,-2.244908 -0.68387,-0.434901 -0.91989,-0.151775 -1.09566,1.314339 -0.10032,0.836745 -0.24332,1.778545 -0.31779,2.092891 -0.12594,0.531649 0.0303,0.665747 0.99406,0.85298 0.0869,0.01688 0.28717,-0.890006 0.44508,-2.015302 z m -1.90404,-1.401541 c 0.15877,-1.403299 0.13476,-1.483492 -0.53562,-1.788937 -0.38601,-0.175877 -0.74207,-0.319779 -0.79124,-0.319779 -0.21607,0 -0.69598,4.321366 -0.50039,4.505773 0.1198,0.11295 0.45594,0.249991 0.74698,0.304538 0.61025,0.114369 0.82144,-0.41379 1.08027,-2.701595 z m 55.60684,0.05435 c 0.26202,-0.16637 0.24042,-0.660974 -0.1038,-2.377199 -0.37966,-1.892882 -0.50523,-2.166604 -0.99232,-2.163067 -1.22513,0.0089 -1.31365,0.292936 -0.81317,2.6093 0.40283,1.864423 0.53815,2.148612 1.02139,2.145099 0.30637,-0.0021 0.70593,-0.09859 0.8879,-0.214133 z m 2.61552,-0.706162 c 0.12838,-0.334568 -0.40772,-4.896488 -0.57542,-4.896488 -0.0316,0 -0.47376,0.173977 -0.98268,0.386617 l -0.9253,0.386617 0.36814,1.663904 c 0.20248,0.915146 0.428,1.931794 0.50116,2.259216 0.1555,0.695976 1.36622,0.846093 1.6141,0.200134 z m -55.50349,-3.227662 c 0.16605,-1.046676 0.3019,-2.075736 0.3019,-2.286796 0,-0.359543 -0.74984,-0.837044 -0.9695,-0.617384 -0.055,0.05501 -0.27643,1.099608 -0.49204,2.321332 -0.36275,2.055463 -0.35846,2.246082 0.0575,2.553036 0.61999,0.457494 0.75538,0.215472 1.10212,-1.970188 z m -2.21408,0.910863 c 0.077,-0.327422 0.29752,-1.450785 0.49014,-2.496363 l 0.35022,-1.901047 -0.77049,-0.569645 c -0.42377,-0.313306 -0.80624,-0.529397 -0.84995,-0.480203 -0.0905,0.101873 -0.93727,5.03519 -0.93727,5.46063 0,0.260675 0.49867,0.480282 1.25173,0.551248 0.17913,0.01688 0.38866,-0.237199 0.46562,-0.56462 z m 54.17817,-2.563218 c 0.11039,-0.09889 0.0426,-0.946718 -0.15073,-1.884071 l -0.35145,-1.704274 -0.89364,0.07423 c -0.49151,0.04083 -0.93374,0.114324 -0.98275,0.16333 -0.049,0.049 0.0349,0.670443 0.18649,1.380979 0.56692,2.657555 0.48333,2.504843 1.26968,2.319605 0.39692,-0.0935 0.812,-0.250912 0.9224,-0.349799 z m 2.74536,-0.625406 c 0.19429,-0.194291 -0.52797,-4.153564 -0.75771,-4.153564 -0.12665,0 -0.59449,0.188338 -1.03964,0.418531 -0.71725,0.370909 -0.79022,0.513919 -0.64128,1.256771 0.0924,0.461031 0.24169,1.297501 0.33168,1.858822 0.15961,0.995585 0.18616,1.016924 1.08408,0.87121 0.50626,-0.08215 0.96655,-0.195451 1.02287,-0.25177 z m -53.51421,-3.864787 c 0.23863,-1.078101 0.40314,-1.989193 0.36558,-2.02465 -0.0376,-0.03546 -0.3651,-0.105876 -0.72787,-0.156485 -0.63039,-0.08794 -0.67586,7.94e-4 -1.02733,2.002504 -0.34533,1.96686 -0.33811,2.11619 0.11843,2.450021 0.61667,0.450921 0.70261,0.29737 1.27119,-2.27139 z m -2.00552,-0.293688 c 0.17514,-1.021347 0.31843,-1.970788 0.31843,-2.109872 0,-0.247637 -1.57134,-1.182277 -1.70406,-1.013582 -0.0945,0.120084 -0.67719,3.806786 -0.67719,4.284409 0,0.375163 0.44893,0.598866 1.33521,0.665348 0.30605,0.02297 0.48942,-0.437304 0.72761,-1.826303 z m 51.73655,0.0163 c 0.12168,-0.118661 0.13772,-0.884143 0.0357,-1.70107 -0.19647,-1.572525 -0.34787,-1.689124 -1.58332,-1.219407 -0.59977,0.228034 -0.67761,0.378802 -0.54639,1.058334 0.50229,2.601076 0.41704,2.437207 1.17111,2.251085 0.38594,-0.09526 0.80126,-0.270282 0.92295,-0.388942 z m 3.02564,-0.658088 c 0.16884,-0.165198 -0.59716,-3.851217 -0.80034,-3.851217 -0.12312,0 -0.58911,0.188878 -1.03553,0.41973 -0.78309,0.40495 -0.80558,0.465608 -0.63878,1.723014 0.27216,2.05159 0.35347,2.161543 1.44753,1.957216 0.52538,-0.09812 0.98759,-0.210053 1.02712,-0.248738 z m -51.82278,-2.991322 c 0.66469,-2.535346 0.67881,-2.394775 -0.28003,-2.788444 l -0.88574,-0.363659 -0.18868,1.079958 c -0.10378,0.593976 -0.25624,1.457481 -0.33879,1.918901 -0.11804,0.659744 -0.0495,0.865121 0.32098,0.961496 0.96518,0.251095 1.11815,0.160996 1.37226,-0.808252 z m 44.98762,0.429091 c 0.77128,-0.268867 0.84221,-0.380532 0.7143,-1.124479 -0.0781,-0.454282 -0.21664,-1.361882 -0.30784,-2.016893 l -0.16581,-1.190929 -1.20069,0.0955 -1.20069,0.09549 0.17175,1.360017 c 0.42288,3.348511 0.4107,3.331485 1.98898,2.781294 z m -47.2552,-0.561383 c 0.0804,-0.327421 0.22615,-1.208619 0.32389,-1.958215 0.166,-1.273204 0.1316,-1.393103 -0.52263,-1.821778 -0.38519,-0.252381 -0.77454,-0.384673 -0.86523,-0.293981 -0.15563,0.155633 -0.84628,3.384724 -0.8672,4.054575 -0.01,0.30597 0.49339,0.523441 1.35065,0.58402 0.24561,0.01736 0.49786,-0.227991 0.58052,-0.564621 z m 49.8922,-0.229287 c 0.72338,-0.252172 0.82851,-0.39746 0.71796,-0.992188 -0.0712,-0.383215 -0.204,-1.262301 -0.29504,-1.953525 -0.18145,-1.377688 -0.20037,-1.390261 -1.4414,-0.957638 -0.83938,0.292611 -0.85445,0.325782 -0.69092,1.521354 0.40068,2.929388 0.34835,2.856463 1.7094,2.381997 z m 3.42575,-0.901761 c 0.13432,-0.132096 -0.53204,-3.734237 -0.75863,-4.100857 -0.13986,-0.226303 -0.41871,-0.190042 -1.05033,0.136578 -0.84506,0.436999 -0.85684,0.468283 -0.68177,1.81089 0.33685,2.583413 0.36171,2.62527 1.43977,2.423928 0.52675,-0.09838 0.99968,-0.220123 1.05096,-0.270539 z m -50.13467,-2.450024 c 0.0706,-0.114199 0.21134,-0.941313 0.31279,-1.838028 l 0.18445,-1.630395 -0.89247,-0.37652 c -0.49087,-0.20709 -0.96684,-0.30271 -1.05771,-0.212495 -0.0909,0.09022 -0.24327,0.970217 -0.33867,1.955557 -0.16413,1.695323 -0.14105,1.804532 0.42981,2.033751 0.76919,0.308851 1.19972,0.330391 1.3618,0.06813 z m -2.37709,-1.313719 c 0.0788,-0.400183 0.21945,-1.283825 0.31254,-1.963653 0.16091,-1.175213 0.13045,-1.25611 -0.61898,-1.643655 l -0.78823,-0.407607 -0.31212,1.643655 c -0.17167,0.90401 -0.37314,1.852793 -0.44771,2.108404 -0.0915,0.313727 0.0638,0.544714 0.4781,0.710832 0.99142,0.397553 1.22484,0.32158 1.3764,-0.447976 z m 46.26496,0.291094 c 0.23823,-0.147232 0.26592,-2.345007 0.0436,-3.456831 -0.15654,-0.782749 -0.15953,-0.783881 -1.34932,-0.51162 -1.18357,0.270841 -1.19126,0.27985 -1.03664,1.214432 0.0857,0.517864 0.1571,1.460836 0.1587,2.095495 l 0.003,1.153925 0.99017,-0.185756 c 0.5446,-0.102169 1.08038,-0.241507 1.19063,-0.309645 z m 2.91473,-0.796417 c 0.11263,-0.06961 0.15025,-0.214775 0.0836,-0.322604 -0.0666,-0.107825 -0.14623,-1.054372 -0.17686,-2.103437 -0.061,-2.087687 0.038,-2.012397 -1.76113,-1.339334 -0.65058,0.243382 -0.72734,0.786244 -0.42403,2.999129 l 0.17129,1.249682 0.95118,-0.17844 c 0.52314,-0.09814 1.04332,-0.235392 1.15594,-0.304996 z m 2.3657,-0.580885 c 0.10185,-0.09381 0.0842,-0.646813 -0.0392,-1.228897 -0.12343,-0.582083 -0.30325,-1.623216 -0.39962,-2.31363 l -0.1752,-1.255294 -0.77776,0.402193 c -0.85205,0.440613 -0.8843,0.614616 -0.60648,3.272668 l 0.17129,1.638771 0.8209,-0.172625 c 0.4515,-0.09494 0.90424,-0.249378 1.00609,-0.343186 z m -48.47164,-4.09031 v -1.935371 l -0.93502,-0.445879 c -0.51426,-0.245232 -0.99533,-0.445878 -1.06903,-0.445878 -0.0737,0 -0.0994,0.977217 -0.0572,2.171597 0.073,2.062443 0.11009,2.180807 0.7383,2.354876 1.30677,0.362085 1.32292,0.341342 1.32292,-1.699345 z m 39.88593,1.109427 c 0.52722,-0.194209 0.59532,-0.401616 0.59532,-1.81334 0,-0.876726 -0.0893,-1.593385 -0.19844,-1.592572 -0.10914,7.94e-4 -0.6289,0.121047 -1.15502,0.267187 -0.88396,0.245544 -0.96933,0.358703 -1.12448,1.490662 -0.29164,2.127763 -0.26038,2.241886 0.55971,2.043433 0.40018,-0.09684 0.99549,-0.274757 1.32291,-0.39537 z m -42.29356,-2.505022 c 0.0245,-1.494512 -0.024,-1.634127 -0.66927,-1.928138 -0.38261,-0.174326 -0.73149,-0.281122 -0.77529,-0.237323 -0.0438,0.0438 -0.10627,1.087387 -0.13883,2.319081 -0.0573,2.16748 -0.0388,2.244389 0.57685,2.393283 0.7849,0.189839 0.96939,-0.276982 1.00654,-2.546903 z m 44.51182,1.966169 1.02289,-0.306464 v -1.777413 -1.777412 l -1.19063,0.428146 -1.19062,0.428146 v 1.655731 c 0,0.910651 0.0755,1.65573 0.16774,1.65573 0.0923,0 0.62804,-0.137908 1.19062,-0.306464 z m 3.46827,-0.923795 c 0.22513,-0.139137 0.28077,-4.061407 0.0576,-4.061407 -0.0786,0 -0.62045,0.243662 -1.2042,0.541472 l -1.06138,0.541473 0.056,1.728978 0.056,1.728978 0.94778,-0.177803 c 0.52128,-0.09779 1.03798,-0.233553 1.14823,-0.301691 z m 2.2066,-0.657058 c 0.0804,-0.130146 0.0637,-1.182812 -0.0372,-2.339253 l -0.18342,-2.102623 -0.76049,0.393266 c -0.70404,0.364072 -0.76023,0.505704 -0.75688,1.907826 0.005,2.212753 0.17045,2.649109 0.94659,2.500739 0.35481,-0.06783 0.71093,-0.229807 0.79136,-0.359955 z m -12.20158,-0.977591 1.84312,-0.471572 0.3405,-1.682345 c 0.18728,-0.925291 0.31037,-1.701798 0.27355,-1.725571 -0.0368,-0.02379 -0.99069,0.0088 -2.11971,0.07233 -2.30664,0.129842 -2.14355,-0.05449 -2.45028,2.769465 -0.0909,0.836745 -0.0674,1.518634 0.0522,1.515311 0.11962,-0.0033 1.04688,-0.218249 2.06059,-0.477615 z m 4.07213,-1.130281 c 0.82657,-0.288145 0.95196,-0.520693 1.19831,-2.222519 0.0632,-0.436563 0.095,-0.228203 0.0707,0.463021 -0.0271,0.769744 0.0693,1.256771 0.24889,1.256771 0.76053,0 1.96,-0.621869 1.96367,-1.018072 0.003,-0.348626 0.0504,-0.363916 0.23315,-0.07551 0.18902,0.298373 0.40813,0.303911 1.25272,0.03166 0.56299,-0.181478 1.19075,-0.46327 1.39501,-0.626206 0.20427,-0.162938 0.38287,-0.249012 0.39688,-0.19128 0.014,0.05774 0.27723,0.02506 0.58492,-0.07259 0.46799,-0.148531 0.58868,-0.463068 0.73838,-1.924222 0.0984,-0.960665 0.132,-1.793613 0.0746,-1.850996 -0.0574,-0.05738 -1.01474,0.328015 -2.12745,0.856441 -1.7346,0.823756 -2.02825,1.060347 -2.05915,1.659001 -0.0322,0.623274 -0.0483,0.634323 -0.15069,0.102917 -0.13621,-0.707194 -0.1446,-0.708202 -1.66536,-0.200239 -0.65484,0.218731 -1.69664,0.521565 -2.3151,0.672965 -0.99393,0.243316 -1.12448,0.362405 -1.12448,1.025753 0,0.412763 -0.0744,1.12255 -0.16537,1.577303 -0.18677,0.933881 0.0537,1.022704 1.4504,0.5358 z m -10.5205,-5.692948 0.95099,-0.157313 -0.24723,-1.360252 c -0.13598,-0.748138 -0.36555,-1.433375 -0.51016,-1.522746 -0.14911,-0.09216 -0.0815,-0.232103 0.15614,-0.323303 0.23049,-0.08844 0.42088,-0.432435 0.42311,-0.764424 0.008,-1.138804 0.44295,-1.389143 0.63504,-0.365205 0.0982,0.523717 0.22692,0.952214 0.28592,0.952214 0.059,0 0.70845,-0.128929 1.44322,-0.286508 1.42342,-0.305269 1.33994,-0.174604 1.44618,-2.263721 0.0199,-0.391454 -0.58134,-0.428343 -6.19066,-0.379822 -3.417,0.02956 -6.15301,-0.006 -6.08004,-0.07894 0.073,-0.07298 1.85667,-0.333359 3.96376,-0.578632 2.81013,-0.327107 4.97685,-0.406883 8.13055,-0.299354 3.09021,0.105363 4.29948,0.06305 4.29948,-0.150451 0,-0.163374 0.14883,-0.102358 0.33073,0.135592 0.1819,0.23795 0.74745,0.479777 1.25677,0.537393 l 0.92604,0.104757 -0.99218,0.04234 c -0.97411,0.04157 -0.99219,0.06163 -0.99219,1.100677 v 1.058333 h 1.85208 c 1.77317,0 1.85209,-0.02677 1.85209,-0.628385 0,-0.345612 0.0715,-0.985887 0.15889,-1.422833 l 0.15888,-0.794447 -2.40317,-0.441643 c -7.75534,-1.425235 -24.55681,-1.658955 -33.23648,-0.462341 -1.21039,0.16687 -1.33034,0.247247 -1.41023,0.94499 -0.0841,0.734807 -0.0552,0.756015 0.79375,0.581764 2.71511,-0.55729 6.52692,-0.938176 9.08315,-0.907615 1.60073,0.01914 2.55323,0.07993 2.11667,0.135092 -2.85443,0.360674 -8.53649,1.241513 -8.88418,1.377233 -0.33094,0.129181 -0.37052,0.341288 -0.19088,1.022873 0.22604,0.857597 0.2314,0.859985 2.00502,0.893504 l 1.77837,0.03361 -1.75189,0.395988 -1.75189,0.395988 -0.0324,1.406519 -0.0324,1.406517 1.12286,0.164378 c 3.83813,0.561875 17.106,0.900203 19.53634,0.498173 z m 6.7296,-0.725183 c 1.01443,-0.166269 1.81464,-0.391602 1.77826,-0.500742 -0.0364,-0.109141 -0.0661,-0.674688 -0.0661,-1.256771 0,-1.047216 -0.0104,-1.058296 -0.99219,-1.054721 -1.76702,0.0064 -2.1287,0.216002 -2.31925,1.343839 -0.25113,1.486413 -0.65731,1.541849 -0.65731,0.08971 v -1.239904 l -1.32874,0.127675 c -0.7308,0.07022 -1.37218,0.174667 -1.42529,0.2321 -0.0531,0.05743 -0.18188,0.737928 -0.28617,1.51221 l -0.18961,1.407782 1.82102,-0.179438 c 1.00155,-0.09869 2.65099,-0.315473 3.66542,-0.48174 z m -27.96654,-1.322303 -0.27254,-1.277856 -0.96494,0.181024 c -1.0572,0.198331 -1.35283,0.496151 -1.35897,1.369046 -0.003,0.4884 0.20542,0.6106 1.38501,0.81034 0.76398,0.129362 1.41042,0.226226 1.43652,0.215254 0.0261,-0.01098 -0.0752,-0.59499 -0.22508,-1.297808 z m 32.33841,0.469625 1.83817,-0.418084 V 35.150147 34.21449 l -1.70964,0.108861 c -0.9403,0.05987 -1.76829,0.167511 -1.83997,0.239193 -0.22023,0.220235 -0.49836,2.359425 -0.30675,2.359425 0.099,0 1.00719,-0.188138 2.01819,-0.418082 z M 119.98944,36.23887 c -0.0883,-0.230182 -0.1606,-0.527838 -0.1606,-0.661458 0,-0.281427 -0.8973,-0.314839 -2.0836,-0.07758 -1.1022,0.22044 -1.04352,0.518263 0.16537,0.839341 1.5838,0.420653 2.2661,0.387731 2.07883,-0.100304 z m 40.05606,-1.272455 1.19063,-0.549192 -1.42367,-0.08557 c -1.77539,-0.106712 -2.04593,-0.0032 -2.20797,0.844413 -0.11819,0.618236 -0.0682,0.663676 0.56031,0.509178 0.37954,-0.0933 1.22586,-0.416772 1.8807,-0.718829 z m -43.65625,-0.573232 c 0,-1.096975 -0.20106,-1.223319 -1.41389,-0.888442 -0.76612,0.211538 -0.96736,0.397524 -0.96736,0.894074 0,0.448534 0.20708,0.696293 0.72761,0.870542 1.16209,0.389014 1.65364,0.128567 1.65364,-0.876174 z m 2.4474,0.133623 c 0.85449,-0.237303 0.99219,-0.38181 0.99219,-1.041242 0,-0.961952 -0.13717,-1.028448 -1.52136,-0.737535 -1.05928,0.222628 -1.12448,0.289119 -1.12448,1.146802 0,1.001413 0.13609,1.053423 1.65365,0.631975 z m -5.96826,-1.176712 c -0.14985,-0.654844 -0.3507,-1.190625 -0.44634,-1.190625 -0.0956,0 -0.44702,0.290737 -0.78085,0.646083 l -0.60697,0.646084 0.89158,0.543552 c 0.49036,0.298954 0.96435,0.543998 1.0533,0.544542 0.0889,5.55e-4 0.0391,-0.534793 -0.11072,-1.189636 z m 49.93235,0.169328 c 0.33499,-0.542034 -2.16201,-2.062601 -4.1443,-2.523703 -0.72005,-0.167491 -0.7276,-0.155368 -0.7276,1.167013 0,1.481452 -0.0765,1.421312 2.24895,1.767436 1.50167,0.223506 2.3091,0.09706 2.62295,-0.410746 z m -40.22943,-0.566203 c -0.002,-0.868171 -0.0508,-0.920245 -0.77714,-0.833284 -1.07147,0.12829 -1.17158,0.2248 -1.17158,1.129453 0,0.753689 0.0496,0.789928 0.97557,0.71199 0.92345,-0.07773 0.97544,-0.13159 0.97315,-1.008159 z m 29.47055,0.626986 c 0.48777,-0.130718 0.59531,-0.345142 0.59531,-1.187012 v -1.027475 h -1.5875 -1.5875 v 1.190626 1.190625 l 0.99219,-0.0036 c 0.5457,-0.002 1.26007,-0.0754 1.5875,-0.16315 z m -36.5125,-0.655768 c 0.43348,-0.162163 0.59531,-0.436018 0.59531,-1.007388 0,-1.052312 -0.24451,-1.145371 -1.70335,-0.648294 -0.96862,0.330044 -1.20107,0.517319 -1.06135,0.855093 0.0984,0.237873 0.23969,0.644194 0.31398,0.902936 0.1367,0.47611 0.33896,0.464953 1.85541,-0.102347 z m 3.22194,-1.024379 c 0.80541,-0.216876 1.1137,-0.454019 1.23894,-0.953018 0.0917,-0.365364 0.10716,-0.723868 0.0344,-0.796674 -0.19895,-0.19896 -3.63534,0.481134 -3.63534,0.71947 0,0.556661 0.66305,1.559457 0.95662,1.446801 0.18326,-0.07032 0.8157,-0.257784 1.40543,-0.416579 z"
       id="path414" />
  </g>
</svg>
