<?xml version="1.0" encoding="UTF-8" standalone="no"?>
<!-- Created with Inkscape (http://www.inkscape.org/) -->

<svg
   width="91.604156mm"
   height="80.170647mm"
   viewBox="0 0 91.604156 80.170646"
   version="1.1"
   id="svg5"
   inkscapeVersion="1.1.2 (b8e25be833, 2022-02-05)"
   sodipodiDocname="logo.svg"
   xmlnsInkscape="http://www.inkscape.org/namespaces/inkscape"
   xmlnsSodipodi="http://sodipodi.sourceforge.net/DTD/sodipodi-0.dtd"
   xmlns="http://www.w3.org/2000/svg"
   xmlnsSvg="http://www.w3.org/2000/svg">
  <sodipodiNamedview
     id="namedview7"
     pagecolor="#ffffff"
     bordercolor="#666666"
     borderopacity="1.0"
     inkscapePageshadow="2"
     inkscapePageopacity="0.0"
     inkscapePagecheckerboard="0"
     inkscapeDocument-units="mm"
     showgrid="false"
     fit-margin-top="0"
     fit-margin-left="0"
     fit-margin-right="0"
     fit-margin-bottom="0"
     height="80.17065mm"
     width="91.60416mm"
     inkscapeZoom="0.64052329"
     inkscapeCx="-225.59679"
     inkscapeCy="220.91312"
     inkscapeWindow-width="1920"
     inkscapeWindow-height="1051"
     inkscapeWindow-x="-9"
     inkscapeWindow-y="-9"
     inkscapeWindow-maximized="1"
     inkscapeCurrent-layer="layer1" />
  <defs
     id="defs2" />
  <g
     inkscapeLabel="Layer 1"
     inkscapeGroupmode="layer"
     id="layer1"
     transform="translate(-33.83422,-90.012246)">
    <path
       style="fill:#000000;stroke-width:0.264583"
       d="M 72.463386,180.0515 C 60.419471,179.34163 47.283748,177.15927 36.678491,174.10623 L 33.83422,173.28742 V 131.64983 90.012246 h 46.302082 46.302078 v 41.651324 41.65133 l -2.57969,0.79652 c -10.55577,3.25926 -20.1072,5.02451 -31.683847,5.85565 -3.357485,0.24105 -16.126308,0.29574 -19.711457,0.0844 z m 8.850743,-16.3304 c 0.492935,-0.20596 1.029422,-0.62332 1.192191,-0.92745 0.162769,-0.30414 0.321181,-2.04072 0.352026,-3.85906 l 0.05608,-3.30608 -0.985639,2e-4 c -0.948669,1.9e-4 -0.975961,0.0257 -0.727604,0.67888 0.14192,0.37328 0.258035,1.9079 0.258035,3.41028 0,2.24566 -0.08552,2.8372 -0.480748,3.32528 -0.408305,0.50424 -0.567317,0.54737 -1.055211,0.28626 -0.785855,-0.42058 -0.891951,-1.03519 -0.795962,-4.61103 l 0.08296,-3.09051 -0.926041,3e-5 -0.926042,4e-5 0.132292,3.25398 c 0.141504,3.48058 0.473678,4.46503 1.669071,4.94653 0.823708,0.3318 1.141457,0.31596 2.154589,-0.10735 z m 9.481764,-1.25792 c 1.485898,-0.58867 1.751833,-2.65799 0.479206,-3.72883 -0.541441,-0.4556 -0.698471,-0.75472 -0.533218,-1.01571 0.364935,-0.57636 0.283385,-1.91338 -0.154866,-2.53907 -0.588187,-0.83976 -1.761897,-0.98502 -3.841387,-0.47541 -1.767938,0.43325 -1.813867,0.46513 -1.465101,1.01674 0.471628,0.74593 1.827522,6.66915 1.667086,7.28266 -0.117049,0.44759 -0.03009,0.45421 1.493139,0.11358 0.889582,-0.19893 1.949397,-0.49322 2.355141,-0.65396 z m -2.685566,-1.45444 c -0.400203,-1.99276 -0.431511,-1.8918 0.649648,-2.09463 1.396471,-0.26198 2.103763,0.57346 1.990127,2.3507 -0.02691,0.42096 -1.417259,1.24327 -2.102109,1.24327 -0.130107,0 -0.372055,-0.6747 -0.537666,-1.49934 z m -0.802142,-3.4616 c -0.579819,-2.23983 -0.555133,-2.31511 0.759246,-2.31511 1.038042,0 1.214231,0.0853 1.427069,0.69045 0.345729,0.98307 0.02617,1.94626 -0.765346,2.3069 -1.013355,0.46172 -1.140656,0.4006 -1.420969,-0.68224 z m -17.638212,4.9362 c -0.199652,-0.32305 0.380645,-3.36414 0.676873,-3.54722 0.104016,-0.0643 0.577318,-0.006 1.051787,0.13053 2.378708,0.68221 4.352425,-2.21363 2.501223,-3.66979 -0.611738,-0.4812 -3.057744,-1.35545 -3.792297,-1.35545 -0.159504,0 -0.290007,0.29961 -0.290007,0.66581 0,1.02101 -1.590836,6.55397 -2.025181,7.04361 -0.346163,0.39024 -0.28424,0.45996 0.621935,0.70026 1.367792,0.36272 1.461396,0.36513 1.255667,0.0323 z m 0.890413,-4.34771 c -0.07651,-0.0765 0.0423,-0.79088 0.264025,-1.5875 0.434634,-1.56154 0.801111,-1.76746 1.844685,-1.03651 1.190808,0.83408 0.420997,2.76312 -1.102659,2.76312 -0.476816,0 -0.929542,-0.0626 -1.006051,-0.13911 z m -4.182417,0.39439 c 0,-0.1404 0.171566,-0.25528 0.381259,-0.25528 0.956318,0 0.519933,-0.57233 -1.302398,-1.70814 -5.300722,-3.3038 -9.620627,-9.04042 -11.380206,-15.11236 -0.364781,-1.25878 -0.663238,-2.3662 -0.663238,-2.46094 0,-0.0947 0.267195,-0.28977 0.593767,-0.43342 1.074765,-0.47275 0.799475,-1.98097 -0.36158,-1.98097 -0.689288,0 -0.626595,-0.73763 0.07152,-0.84149 1.368072,-0.20354 1.275989,-1.85173 -0.112771,-2.0185 -0.59897,-0.0719 -0.669288,-0.18435 -0.579234,-0.92605 0.05637,-0.46429 0.161145,-1.46885 0.232827,-2.23235 0.319967,-3.40806 1.856697,-7.64228 3.945521,-10.87127 1.279624,-1.9781 1.472341,-2.48704 0.906303,-2.39342 -0.181901,0.0301 -0.676676,-0.0418 -1.0995,-0.15971 -0.604425,-0.16857 -0.844814,-0.11041 -1.124479,0.27205 -0.471068,0.64423 -0.450038,0.8389 0.145732,1.34902 0.486918,0.41691 0.464122,0.50687 -0.787103,3.10626 -0.708699,1.47231 -1.61035,3.74848 -2.00367,5.05817 -0.654357,2.1789 -0.71556,2.76347 -0.72023,6.87917 -0.0046,4.06579 0.06345,4.7515 0.708443,7.13753 0.39245,1.45179 1.300238,3.83304 2.017306,5.29167 1.991196,4.0504 4.253344,6.66729 8.984139,10.39301 0.538316,0.42395 0.585801,0.58016 0.324665,1.0681 -0.254664,0.47584 -0.215252,0.66213 0.235426,1.11281 0.430533,0.43053 0.648332,0.48401 1.064398,0.26134 0.287705,-0.15398 0.523102,-0.39483 0.523103,-0.53523 z m 29.545586,-0.14366 c 0.08082,-0.21062 -0.0145,-0.57746 -0.211807,-0.81521 -0.311949,-0.37588 -0.258437,-0.50489 0.410128,-0.98882 6.327274,-4.57991 10.343264,-11.01409 11.541124,-18.49058 0.21129,-1.31874 0.27477,-3.26885 0.17657,-5.42396 -0.18934,-4.15547 -1.00417,-7.33638 -2.80401,-10.94621 -1.22566,-2.45823 -1.25509,-2.56998 -0.78326,-2.97397 0.58429,-0.50029 0.60408,-0.6973 0.13454,-1.33944 -0.27967,-0.38246 -0.52006,-0.44062 -1.12448,-0.27205 -0.42282,0.11792 -0.9176,0.18979 -1.0995,0.15971 -0.53795,-0.089 -0.38739,0.36041 0.62324,1.86014 2.52739,3.75053 3.92919,7.79145 4.45429,12.84024 0.16917,1.62652 0.16635,1.63545 -0.5419,1.71979 -1.41362,0.16835 -1.5301,1.81505 -0.14298,2.02142 0.69811,0.10386 0.76081,0.84149 0.0715,0.84149 -1.1654,0 -1.43535,1.50871 -0.35497,1.98382 0.68694,0.30209 0.65917,0.68016 -0.26244,3.57243 -1.82986,5.74259 -6.02211,11.17266 -11.118059,14.40082 -1.120174,0.7096 -1.969288,1.39923 -1.886916,1.53251 0.08237,0.13328 0.316315,0.17842 0.519878,0.1003 0.209931,-0.0805 0.370112,0.0205 0.370112,0.2334 0,0.95841 1.660041,0.94545 2.02892,-0.0158 z m -16.448711,-7.32977 c 0.582083,-0.28995 1.534583,-0.85206 2.116666,-1.24913 2.842879,-1.93929 4.7488,-2.50303 7.14375,-2.11302 l 0.79375,0.12926 -0.05508,-2.32793 c -0.03029,-1.28037 -0.301718,-3.70553 -0.603166,-5.38925 -0.301447,-1.68373 -0.478856,-3.27944 -0.394239,-3.54604 0.08461,-0.26659 0.01884,-0.98613 -0.146191,-1.59896 -0.228901,-0.85008 -0.224268,-1.25582 0.01955,-1.71139 0.433038,-0.80914 0.126019,-2.68377 -0.691287,-4.22091 l -0.651087,-1.22452 0.797729,-0.30111 c 0.870181,-0.32846 0.936662,-0.48945 0.522034,-1.26419 -0.218559,-0.40838 -0.380341,-0.45913 -0.780674,-0.24488 -0.440854,0.23594 -0.540057,0.14397 -0.781167,-0.72423 -0.151902,-0.54698 -0.277513,-1.76841 -0.279135,-2.7143 -0.004,-2.30615 -0.386604,-3.54484 -1.463151,-4.73645 -1.412812,-1.56381 -3.529095,-1.98823 -6.102813,-1.22392 -2.126689,0.63156 -3.811119,2.82683 -3.811119,4.96692 0,0.64174 -0.212008,1.06165 -0.79375,1.57212 -0.907248,0.7961 -1.042411,1.538 -0.280199,1.538 0.64679,0 0.840518,0.31298 0.861996,1.39259 0.0094,0.471 0.10989,0.97543 0.223375,1.12095 0.113485,0.14552 0.246639,0.62177 0.295894,1.05834 0.08083,0.71644 0.211958,0.81739 1.34633,1.03653 1.226275,0.23689 1.527653,0.48461 0.992187,0.81555 -0.145521,0.0899 -0.264583,0.3566 -0.264583,0.59258 0,0.23599 -0.60343,1.30196 -1.340956,2.36883 -2.665333,3.85554 -3.766704,7.17826 -3.798065,11.45838 -0.03335,4.55179 0.797933,6.3934 3.164105,7.00971 1.503759,0.39168 2.457434,0.27858 3.959291,-0.46953 z m 6.166297,-21.23173 c -0.233238,-0.5119 -0.229328,-0.74396 0.01669,-0.98998 0.395528,-0.39553 0.818203,0.14962 0.82442,1.0633 0.0054,0.79668 -0.463333,0.75581 -0.84111,-0.0733 z m -23.072457,-12.0751 c 1.6594,-1.25286 2.311672,-2.28413 2.065374,-3.26546 -0.195633,-0.77946 -1.285952,-1.71789 -1.995937,-1.71789 -0.366766,0 -0.493485,-0.19466 -0.493485,-0.75807 0,-0.41694 -0.246766,-1.07178 -0.54837,-1.45521 -0.849535,-1.08 -2.176219,-0.96188 -3.935021,0.35036 -1.82721,1.36328 -1.802965,1.33256 -1.281771,1.62423 0.614911,0.34413 4.442245,5.46065 4.442245,5.93856 0,0.55729 0.130964,0.50357 1.746965,-0.71652 z m -1.592766,-1.73839 c -0.996612,-1.37332 -0.945702,-1.63959 0.421783,-2.20602 0.780206,-0.32317 0.862338,-0.2969 1.578729,0.50488 0.415637,0.46518 0.755706,1.02791 0.755706,1.25051 0,0.45573 -1.152134,1.70359 -1.572903,1.70359 -0.150723,0 -0.683212,-0.56383 -1.183315,-1.25296 z m -2.406544,-3.17102 c -0.896983,-1.17475 -0.925225,-1.26979 -0.475141,-1.59899 0.995475,-0.72812 1.723076,-0.71448 2.375956,0.0445 0.338862,0.39396 0.616114,0.92701 0.616114,1.18457 0,0.43728 -1.017459,1.61887 -1.393996,1.61887 -0.0931,0 -0.598416,-0.56204 -1.122933,-1.24898 z m 41.712086,0.27435 c 3.36572,-1.92968 4.05717,-2.42326 3.70545,-2.64512 -0.3103,-0.19573 -0.50748,-0.17719 -0.69828,0.0657 -0.14623,0.18614 -0.89095,0.70167 -1.65494,1.14564 l -1.38905,0.8072 v -1.96251 c 0,-1.73484 -0.0691,-2.01104 -0.595318,-2.38088 l -0.595312,-0.41837 -0.145071,2.77535 c -0.07979,1.52644 -0.198853,2.82084 -0.264584,2.87645 -0.06573,0.0556 -0.861872,0.51399 -1.769202,1.01864 -1.267143,0.70477 -1.577324,0.98991 -1.33762,1.22961 0.171638,0.17164 0.378217,0.21051 0.459066,0.0864 0.08085,-0.12414 2.009031,-1.29327 4.284861,-2.59806 z m -7.136339,-3.12641 c 0.445452,-1.60073 0.853014,-2.98375 0.90569,-3.07337 0.212336,-0.36127 1.487799,0.13723 1.679916,0.65657 0.203623,0.55045 0.207629,0.5499 0.399579,-0.0549 0.106643,-0.336 0.152773,-0.65203 0.102513,-0.70229 -0.05026,-0.0503 -1.28152,-0.44449 -2.736136,-0.87607 -2.654054,-0.78744 -3.027034,-0.76536 -3.037581,0.17983 -0.0031,0.28184 0.07913,0.29409 0.367517,0.0547 0.446733,-0.37075 1.745099,-0.10227 1.745099,0.36086 0,0.54313 -1.887458,6.34159 -2.181614,6.70214 -0.34594,0.42402 -0.277309,0.48659 0.858698,0.78288 0.87136,0.22727 0.930775,0.20133 1.006223,-0.43924 0.0441,-0.37442 0.444641,-1.99045 0.890096,-3.59118 z m -22.654085,3.45161 c 1.292558,-1.29256 0.735695,-4.91305 -0.977376,-6.35451 -0.985338,-0.8291 -2.568509,-0.91272 -3.239662,-0.17111 -0.82931,0.91638 -1.029123,2.28454 -0.566205,3.87692 0.834617,2.87099 3.232909,4.19903 4.783243,2.6487 z m -2.118498,-0.30422 c -1.067122,-1.06712 -2.189101,-4.32067 -1.894604,-5.49404 0.390491,-1.55584 1.70743,-1.02905 2.790338,1.11618 1.346102,2.66661 1.420043,4.80234 0.166264,4.80234 -0.350636,0 -0.828535,-0.19101 -1.061998,-0.42448 z m 10.162043,-1.2954 c 0.630891,-0.63302 0.668631,-0.81333 0.569346,-2.72019 -0.05848,-1.12322 -0.118012,-2.72683 -0.132292,-3.56357 -0.02349,-1.37633 -0.08065,-1.52136 -0.59963,-1.52136 -1.297818,0 -1.354796,0.1302 -0.960406,2.1946 0.556773,2.91439 0.567849,5.0992 0.02859,5.64039 -0.413949,0.41543 -0.49574,0.41691 -1.10149,0.02 -0.359883,-0.2358 -0.723342,-0.76019 -0.807683,-1.1653 -0.341058,-1.63818 -0.675211,-5.6172 -0.508262,-6.05227 0.139912,-0.3646 0.07827,-0.42632 -0.28612,-0.28649 -0.255447,0.098 -0.756555,0.17823 -1.113576,0.17823 -0.53327,0 -0.606285,0.0826 -0.409091,0.46302 0.132022,0.25466 0.324128,1.47505 0.426903,2.71198 0.212915,2.56249 0.897218,4.38713 1.785795,4.76166 0.934529,0.3939 2.358569,0.0912 3.107912,-0.66071 z m 8.48111,0.33082 c 2.64e-4,-0.93741 0.518152,-6.33754 0.684995,-7.14375 0.113864,-0.5502 0.04868,-0.72761 -0.267319,-0.72761 -0.3248,0 -0.423063,0.30946 -0.441079,1.38907 -0.01275,0.76398 -0.103378,1.98437 -0.201398,2.71198 l -0.178221,1.32291 -1.267565,-1.71979 c -0.697159,-0.94588 -1.588797,-2.22559 -1.981412,-2.8438 -0.825122,-1.29921 -1.239266,-1.43065 -1.251939,-0.39734 -0.0049,0.40018 -0.102024,2.30518 -0.215816,4.23333 -0.143661,2.43425 -0.120716,3.50573 0.07507,3.50573 0.169177,0 0.283128,-0.66148 0.284877,-1.65365 0.0016,-0.9095 0.07666,-2.09981 0.166796,-2.64513 l 0.163885,-0.99149 1.720292,2.18211 c 0.94616,1.20016 1.842714,2.45001 1.992339,2.77743 0.149627,0.32742 0.371999,0.59531 0.494162,0.59531 0.122161,0 0.222213,-0.26789 0.222335,-0.59531 z"
       id="path39" />
  </g>
</svg>
